<?xml version="1.0" encoding="UTF-8" standalone="no"?>
<svg
   xmlns:dc="http://purl.org/dc/elements/1.1/"
   xmlns:cc="http://creativecommons.org/ns#"
   xmlns:rdf="http://www.w3.org/1999/02/22-rdf-syntax-ns#"
   xmlns:svg="http://www.w3.org/2000/svg"
   xmlns="http://www.w3.org/2000/svg"
   id="svg3"
   xml:space="preserve"
   enable-background="new 0 0 200 200"
   viewBox="0 0 200 200"
   y="0px"
   x="0px"
   version="1.1"><metadata
     id="metadata9"><rdf:RDF><cc:Work
         rdf:about=""><dc:format>image/svg+xml</dc:format><dc:type
           rdf:resource="http://purl.org/dc/dcmitype/StillImage" /></cc:Work></rdf:RDF></metadata><defs
     id="defs7" /><path
     data-name="path11-9"
     fill="#f9f9f9"
     d="m74.98 35.79c0.14 0.65 0.27 1.31 0.42 1.97 0.17 0.81 0.35 1.62 0.53 2.42 0.24 1.08 0.52 2.16 0.77 3.23 0.2 0.78 0.38 1.55 0.59 2.32 0.24 0.9 0.49 1.79 0.74 2.68 0.06 0.22 0.12 0.43 0.18 0.65 0.21 0.71 0.4 1.42 0.61 2.14 0.37 1.23 0.77 2.46 1.16 3.68 0.18 0.56 0.35 1.14 0.55 1.7 0.26 0.76 0.53 1.52 0.79 2.29 0.35 1 0.71 2 1.08 2.99 0.11 0.32 0.24 0.62 0.36 0.94 0.55 1.43 1.1 2.86 1.67 4.26 0.25 0.61 0.52 1.21 0.78 1.82 0.47 1.11 0.94 2.2 1.43 3.3 0.26 0.55 0.52 1.1 0.78 1.64 0.06 0.12 0.11 0.22 0.15 0.33 0.36 0.77 0.72 1.55 1.09 2.31 3.85-0.27 7.71-0.4 11.5-0.4 2.67-0.05 5.41-0.02 8.15 0.06 1.08 0.04 2.14 0.08 3.22 0.13 0.27 0.01 0.53 0.02 0.8 0.03s1.5 0.08 1.5 0.08h0.05c1.93 0.13 3.85 0.28 5.77 0.47 0.48 0.04 0.96 0.11 1.44 0.17 0.13 0 0.26 0.03 0.39 0.04 1.31 0.14 2.62 0.29 3.93 0.46 0.73 0.09 1.46 0.22 2.19 0.33 0.03 0 0.06 0 0.08 0.01 1.16 0.17 2.33 0.33 3.49 0.53 0.24 0.04 0.48 0.09 0.72 0.13 0.57 0.11 1.16 0.21 1.73 0.31 1.11 0.21 2.22 0.41 3.33 0.62 0.84 0.18 1.67 0.36 2.51 0.54 1.09 0.24 2.18 0.47 3.26 0.73 0.84 0.2 1.69 0.43 2.54 0.64 0.34 0.09 0.67 0.18 1 0.26 0.74 0.19 1.48 0.37 2.22 0.58 0.85 0.22 1.7 0.48 2.55 0.72 1.07 0.3 2.14 0.61 3.21 0.94 0.84 0.26 1.69 0.54 2.54 0.81 0.34 0.11 0.68 0.22 1.02 0.32 1.05 0.35 2.1 0.7 3.16 1.06l2.17 0.75c0.74-2.08 1.44-4.19 2.1-6.31 1.14-3.62 2.17-7.31 3.08-11.04 0.62-2.51 1.2-5.03 1.72-7.6 1.07-5.35 1.94-10.79 2.56-16.32l0.19-1.71-1.59-0.66c-5.26-2.18-10.57-4.11-15.9-5.79-5.01-1.57-10.05-2.89-15.08-4.01-3.16-0.7-6.33-1.35-9.49-1.87-0.85-0.14-1.69-0.28-2.54-0.41-2.58-0.38-5.17-0.7-7.77-0.97-3.2-0.33-6.41-0.57-9.61-0.71-3.58-0.17-7.16-0.23-10.72-0.17-2.72 0-5.45 0.08-8.18 0.21-5.96 0.3-11.93 0.91-17.84 1.82l0.41 2.18c0.15 0.78 0.32 1.54 0.48 2.31zm22.36 11.5c4.06-0.07 8.14 0.02 12.22 0.25 3.2 0.18 6.41 0.44 9.61 0.79 2.1 0.23 4.18 0.5 6.26 0.81 1.38 0.21 2.75 0.44 4.13 0.68 3.21 0.56 6.41 1.23 9.62 1.99 4.56 1.06 9.1 2.29 13.64 3.71-0.51 2.81-1.07 5.57-1.68 8.32-6.92-1.91-13.86-3.39-20.78-4.42-0.2-0.03-0.4-0.05-0.6-0.08-3.48-0.5-6.98-0.9-10.48-1.2-5.69-0.47-11.38-0.66-17.02-0.56-0.74-0.01-1.49 0-2.23 0.01-0.03-0.09-0.07-0.18-0.11-0.27-0.24-0.62-0.45-1.25-0.68-1.87-0.49-1.34-0.99-2.67-1.45-4.03-0.26-0.78-0.51-1.57-0.77-2.35-0.2-0.59-0.38-1.17-0.57-1.75 0.29 0 0.58-0.01 0.87-0.01zm17.21 111.68c3.9-3.53 7.59-7.19 11.11-10.96 2.21-2.37 4.37-4.77 6.42-7.24 0.55-0.66 1.1-1.31 1.64-1.98 1.64-2.03 3.23-4.1 4.78-6.21-1.14-0.84-2.28-1.68-3.43-2.5-3.77-2.78-7.65-5.38-11.61-7.81-2.79-1.71-5.63-3.33-8.5-4.87 1.86-2.64 3.65-5.33 5.35-8.07 1.3-2.08 2.56-4.19 3.76-6.32 0.38-0.63 0.75-1.29 1.12-1.93 0.09 0.02 0.19 0.03 0.28 0.05 0.66 0.11 1.3 0.25 1.95 0.37 1.4 0.26 2.81 0.5 4.21 0.79 0.81 0.17 1.62 0.36 2.41 0.53 0.61 0.13 1.2 0.27 1.8 0.4-0.15 0.25-0.28 0.51-0.43 0.75-2 3.53-4.15 7-6.41 10.41 4.02 2.48 7.95 5.13 11.7 7.88 1.1 0.79 2.19 1.59 3.27 2.39 1.96-3 3.83-6.05 5.58-9.15 1.38-2.35 2.7-4.74 3.97-7.16 2.77-5.29 5.27-10.74 7.48-16.3l-2.09-0.75c-0.74-0.27-1.5-0.5-2.24-0.76-0.63-0.21-1.27-0.43-1.91-0.64-0.78-0.27-1.57-0.52-2.36-0.77-1.06-0.34-2.12-0.65-3.18-0.97-0.77-0.22-1.53-0.46-2.3-0.67-0.9-0.25-1.79-0.48-2.69-0.72-0.22-0.05-0.43-0.11-0.65-0.17-0.72-0.18-1.43-0.37-2.16-0.56-1.25-0.31-2.5-0.58-3.76-0.87-0.58-0.13-1.16-0.27-1.74-0.39-0.79-0.16-1.58-0.32-2.38-0.48-1.04-0.2-2.08-0.4-3.12-0.58-0.33-0.06-0.66-0.11-0.99-0.16-1.51-0.26-3.02-0.5-4.52-0.72-0.65-0.09-1.31-0.16-1.96-0.25-1.19-0.15-2.38-0.31-3.57-0.45-0.61-0.05-1.21-0.11-1.81-0.16-0.13 0-0.25-0.02-0.37-0.04-0.84-0.08-1.7-0.16-2.54-0.23-1.72 3.45-3.56 6.85-5.48 10.12-1.31 2.33-2.72 4.67-4.19 6.99-0.53 0.84-1.06 1.66-1.6 2.49-0.06 0.07-0.1 0.15-0.15 0.22-0.15 0.23-0.28 0.45-0.43 0.67s-0.84 1.26-0.84 1.26l-0.03 0.04c-1.08 1.6-2.19 3.18-3.33 4.74-0.28 0.4-0.59 0.77-0.88 1.16-0.07 0.11-0.16 0.21-0.23 0.31-0.79 1.06-1.58 2.11-2.39 3.16-0.45 0.58-0.93 1.15-1.39 1.73-0.02 0.02-0.04 0.05-0.05 0.06-0.73 0.92-1.47 1.84-2.23 2.74-0.16 0.18-0.32 0.37-0.48 0.55 6.08 2.31 11.97 4.93 17.63 7.89 2.82 1.47 5.58 3.02 8.3 4.65-2.11 2.48-4.32 4.9-6.59 7.28-3.22 3.39-6.58 6.69-10.12 9.87-2.16-1.85-4.26-3.74-6.32-5.66 2.88-2.79 5.64-5.67 8.29-8.6-4.68-2.35-9.57-4.52-14.6-6.43l-3.49-1.33c-0.16 0.17-0.33 0.36-0.5 0.53-0.61 0.62-1.23 1.24-1.84 1.86-0.25 0.25-0.5 0.49-0.73 0.73-0.54 0.54-1.07 1.08-1.62 1.62-0.62 0.61-1.27 1.22-1.92 1.83-0.81 0.77-1.61 1.53-2.44 2.29-0.65 0.6-1.32 1.19-1.99 1.78-0.27 0.24-0.53 0.48-0.8 0.72-0.83 0.73-1.67 1.46-2.52 2.19l-1.75 1.49c1.41 1.7 2.88 3.36 4.37 5.01 2.54 2.82 5.2 5.57 7.95 8.26 1.85 1.81 3.74 3.59 5.68 5.33 4.06 3.64 8.32 7.15 12.76 10.48l1.38 1.04 1.38-1.04c4.55-3.43 8.9-7.03 13.05-10.76zm-44.73-26.22c0.62-0.54 1.24-1.1 1.84-1.66 0.83-0.74 1.62-1.5 2.43-2.26 0.58-0.56 1.16-1.1 1.73-1.66 0.66-0.65 1.31-1.31 1.97-1.96 0.16-0.17 0.31-0.32 0.48-0.48 0.51-0.53 1.04-1.06 1.56-1.59 0.9-0.93 1.76-1.88 2.64-2.83 0.39-0.43 0.82-0.86 1.21-1.31 0.53-0.6 1.06-1.2 1.61-1.82 0.7-0.8 1.39-1.6 2.07-2.4 0.22-0.26 0.42-0.52 0.63-0.78 0.98-1.18 1.95-2.36 2.89-3.55 0.4-0.52 0.8-1.05 1.19-1.58 0.73-0.95 1.46-1.9 2.17-2.86 0.36-0.5 0.71-1 1.05-1.49 0.06-0.11 0.14-0.2 0.21-0.3 0.5-0.69 0.99-1.39 1.47-2.08-2.12-3.22-4.14-6.51-6.01-9.82-1.11-1.88-2.19-3.84-3.26-5.83-0.23-0.43-0.47-0.86-0.7-1.3-0.5-0.95-0.99-1.9-1.47-2.87-0.13-0.24-0.25-0.47-0.37-0.71s-0.66-1.35-0.66-1.35l-0.02-0.05c-0.39-0.79-0.73-1.59-1.11-2.39-0.44-0.95-0.9-1.9-1.32-2.86-0.26-0.56-0.48-1.13-0.72-1.7-0.52-1.21-1.05-2.42-1.54-3.65-0.18-0.44-0.35-0.91-0.52-1.36-1.17 0.44-2.34 0.9-3.5 1.38-4.65 1.81-9.18 3.81-13.61 6-2.83 1.39-5.62 2.87-8.37 4.43-1.1-3.06-2.1-6.19-3.04-9.36-1.37-4.62-2.58-9.32-3.59-14.12 2.68-0.94 5.37-1.82 8.06-2.63 1.06 4.27 2.29 8.45 3.65 12.57 4.39-2.14 8.87-4.11 13.33-5.84 1.21-0.49 2.42-0.96 3.63-1.42l0.17-0.06c-0.06-0.19-0.14-0.39-0.2-0.58-0.26-0.82-0.5-1.63-0.76-2.45-0.33-1.07-0.66-2.13-0.97-3.2-0.24-0.83-0.46-1.69-0.69-2.53-0.09-0.33-0.17-0.67-0.27-1-0.2-0.73-0.4-1.47-0.59-2.21-0.22-0.85-0.42-1.72-0.62-2.58-0.27-1.08-0.52-2.17-0.76-3.25-0.19-0.86-0.36-1.74-0.54-2.61-0.07-0.36-0.15-0.71-0.22-1.05-0.21-1.08-0.43-2.17-0.63-3.28l-0.41-2.26c-2.17 0.38-4.36 0.81-6.52 1.27-3.72 0.79-7.43 1.72-11.14 2.75-2.49 0.69-4.98 1.43-7.46 2.25-5.19 1.69-10.35 3.61-15.47 5.79l-1.59 0.68 0.21 1.71c0.69 5.66 1.61 11.23 2.78 16.7 1.26 5.93 2.8 11.72 4.6 17.37 1.01 3.17 2.09 6.28 3.27 9.33 0.02 0.04 0.04 0.07 0.05 0.12 1.28 3.33 2.67 6.62 4.16 9.87 4.99-3.71 10.13-7.1 15.42-10.16 2.83-1.64 5.71-3.18 8.62-4.64 1.36 2.92 2.81 5.79 4.32 8.61 1.05 1.95 2.11 3.87 3.23 5.77 0.36 0.65 0.73 1.29 1.11 1.93-0.06 0.07-0.12 0.16-0.18 0.23-0.42 0.51-0.86 1-1.29 1.5-0.93 1.09-1.84 2.18-2.8 3.25-0.55 0.61-1.12 1.22-1.67 1.83-0.41 0.46-0.83 0.91-1.25 1.36-0.15-0.26-0.29-0.5-0.44-0.75-1.97-3.35-3.83-6.79-5.57-10.3-4.67 2.74-9.29 5.8-13.76 9.12l-1.4 1.05c1.18 2.23 2.4 4.44 3.68 6.61 1.34 2.37 2.75 4.71 4.21 7.02 3.19 5.04 6.65 9.94 10.37 14.63l1.7-1.43c0.6-0.51 1.18-1.05 1.77-1.56 0.5-0.44 1.01-0.88 1.51-1.33z"
     id="b" /></svg>